PathFileType	4	(X/Y/Z)	OpenSim_Sub08_CSBaseline_Gyro.trc
DataRate	CameraRate	NumFrames	NumMarkers	Units	OrigDataRate	OrigDataStartFrame	OrigNumFrames
100	100	40	8	m	100	4096	5461
Frame#	Time	torso_imu_offset_imu	pelvis_imu_offset_imu	tibia_r_imu_offset_imu	femur_r_imu_offset_imu	tibia_l_imu_offset_imu	femur_l_imu_offset_imu	toes_r_imu_offset_imu	toes_l_imu_offset_imu
				X1	Y1	Z1	X2	Y2	Z2	X3	Y3	Z3	X4	Y4	Z4	X5	Y5	Z5	X6	Y6	Z6	X7	Y7	Z7	X8		Y8	Z8	

4096	40.95000000	0.09449900	0.33797000	-0.16710200	-0.50934600	-0.07209500	0.56415500	2.34497000	-0.53916500	-1.86719800	-0.38817400	0.15110600	-0.66307400	0.87282300	0.09431500	2.04810200	0.48656000	0.48310000	0.23607500	-0.76554800	-2.10174800	-0.17039300	0.27965400	-2.69254600	0.07504200
4097	40.96000000	0.10556500	0.34296400	-0.15315200	-0.73649800	-0.17278800	0.57367400	2.18452200	-0.15915000	-1.36677300	-0.75993300	0.00534000	-0.23322000	1.03076400	0.09655700	2.15950000	0.41055000	0.49481600	0.15359700	-0.48210000	-1.58863500	0.11000000	0.15256100	-3.19348000	-0.04284300
4098	40.97000000	0.10507500	0.35845900	-0.15064300	-0.81193200	-0.24158500	0.56086900	1.47398700	-0.14100900	-0.91651100	-0.74953600	-0.33440800	0.01195300	1.28427000	0.12198900	2.31868100	0.23800200	0.53482500	0.04728200	-0.46827900	-1.45410400	0.31897800	0.01882500	-3.75642000	-0.19527000
4099	40.98000000	0.10822900	0.36789300	-0.14555100	-0.78386100	-0.29192900	0.50247700	0.05652900	-0.67764300	-0.84636600	-0.32490000	-0.45133000	-0.06485800	1.55325600	0.12528800	2.49872700	0.06099500	0.59179100	-0.12358200	-0.30578600	-1.06929700	0.45180900	-0.29654600	-4.39994800	-0.32388700
4100	40.99000000	0.12572300	0.38013400	-0.14475500	-0.60991900	-0.30337300	0.39516400	-1.04745700	-1.10340600	-1.05162100	0.16052100	-0.30294500	-0.37636900	1.73632700	0.15087800	2.64374200	-0.01672400	0.70092300	-0.23736300	1.06267500	-0.31089900	0.39428100	-0.59756800	-4.92183100	-0.33266200
4101	41.00000000	0.16398500	0.37987600	-0.15320600	-0.30749500	-0.27964800	0.29491300	-1.11625900	-1.04242200	-1.11081700	0.18094000	-0.17392800	-0.75869000	1.81452200	0.16040000	2.72180900	-0.05174300	0.81111000	-0.53869400	0.40701900	-0.63935800	0.46052700	-0.76214600	-5.50184000	-0.31426600
4102	41.01000000	0.21128600	0.37859600	-0.18129900	0.02189900	-0.21032800	0.22262000	-1.17131700	-0.82629700	-0.83426600	-0.28468500	-0.19094500	-1.06626200	1.73363000	0.18587100	2.76043800	0.02730200	0.96143500	-0.74375700	0.22820600	-0.51623500	0.25357800	-0.57472100	-5.99711200	-0.25087800
4103	41.02000000	0.27468400	0.36372800	-0.21041500	0.34766800	-0.10799100	0.19694200	-1.26429300	-0.70591400	-0.59461800	-0.76802100	-0.31069200	-1.21055900	1.63457900	0.23639300	2.78910000	0.08319000	1.13899700	-1.07675000	0.55088800	-0.29669400	0.10432400	0.33570400	-6.51274300	-0.15100800
4104	41.03000000	0.33757900	0.32645400	-0.23568200	0.59855400	0.02248800	0.22648100	-0.89922200	-0.71887900	-0.63513900	-0.80583900	-0.42695600	-1.15691400	1.42134100	0.32967700	2.81179900	0.17769700	1.29112700	-1.28129000	0.52290300	-0.24193300	-0.00840200	1.04733000	-6.24987100	0.35275900
4105	41.04000000	0.39784700	0.26174700	-0.25082100	0.73932400	0.16978800	0.28198800	-0.54758300	-0.76049800	-0.68379300	-0.32425200	-0.43924400	-1.00021300	0.82721000	0.31005100	2.80915300	0.19215000	1.39807400	-1.54820100	0.48298700	-0.16775100	-0.03423300	0.68679100	-5.82058300	0.90963000
4106	41.05000000	0.44911500	0.17452100	-0.23217200	0.76400200	0.30808100	0.35484100	0.06443200	-0.69851100	-0.70781500	0.54807800	-0.40515300	-0.87881000	0.26169900	0.12900000	2.72063600	0.17096500	1.40791600	-1.63402300	0.49187300	-0.07791700	-0.09644700	2.13586900	-5.29695400	0.99118500
4107	41.06000000	0.49623700	0.07280800	-0.19424500	0.66659500	0.41611100	0.41740400	0.75511500	-0.54582700	-0.73198600	1.44775900	-0.36361600	-0.82778900	-0.17951900	-0.12012500	2.58778100	0.21754300	1.35787600	-1.77176600	0.26097000	-0.05284900	-0.10739700	3.96025200	-4.81044200	1.12201200
4108	41.07000000	0.53316300	-0.02761200	-0.14552800	0.51771000	0.47652000	0.46018600	1.27734800	-0.41202600	-0.70886700	2.07482800	-0.31514800	-0.84117900	-0.50896000	-0.29975200	2.45292900	0.33352200	1.30492900	-1.74795400	0.18980500	-0.08574200	-0.04100600	4.15237500	-4.27828500	1.31440200
4109	41.08000000	0.58166600	-0.11579500	-0.07997500	0.38614500	0.46756000	0.47388500	1.55504000	-0.38219500	-0.69865100	2.36348000	-0.29352700	-0.88132900	-0.40837600	-0.34166800	2.30881800	0.52266300	1.29303000	-1.80416900	0.26559200	-0.02454800	-0.06097900	4.27585500	-3.52924400	1.49916200
4110	41.09000000	0.63919500	-0.19634100	-0.01381600	0.28930900	0.40615500	0.42408600	1.44608500	-0.47603900	-0.74662300	2.26121500	-0.29317100	-0.88739400	0.04882500	-0.30408900	2.15515300	0.64649900	1.24838400	-1.75561400	0.14186900	0.02417600	-0.05295600	3.96001500	-2.33130300	1.81690600
4111	41.10000000	0.69264700	-0.26610900	0.04066800	0.21407400	0.33570300	0.31362900	0.97797400	-0.53233500	-0.78063700	1.75097500	-0.30920800	-0.83576300	0.69630500	-0.35313800	1.85067100	0.69110400	1.15877100	-1.74704200	0.20068000	-0.01703000	-0.13506500	3.43863200	0.16587600	2.11905200
4112	41.11000000	0.73104500	-0.32628200	0.08940800	0.18805200	0.27116800	0.18193300	0.45610200	-0.50753700	-0.71354100	1.00061100	-0.33922800	-0.74944300	1.32151100	-0.30541300	1.47081100	0.63169700	1.11052200	-1.82877600	0.22618100	0.01454000	-0.22070300	0.79399300	1.44731200	2.70867500
4113	41.12000000	0.75567200	-0.35660100	0.12601800	0.17401800	0.24546300	0.03627400	0.04755100	-0.48251500	-0.60832800	0.26709000	-0.37654800	-0.67548500	1.55314300	-0.36604600	1.07030500	0.42161400	1.09354300	-1.82295600	0.24399300	0.00213800	-0.34003500	-0.78973000	1.76341500	3.18605700
4114	41.13000000	0.77298900	-0.37483600	0.15698400	0.18556800	0.20348900	-0.10034700	-0.27080600	-0.51411800	-0.55456900	-0.31934000	-0.43971900	-0.60929300	1.63069000	-0.59204000	0.46762100	0.24914900	0.98865200	-1.80847000	0.34269100	0.04575100	-0.45106900	-1.90657000	1.83521000	3.39461300
4115	41.14000000	0.78574400	-0.38508000	0.14934100	0.21145200	0.13731000	-0.22274000	-0.38305500	-0.51985700	-0.57988200	-0.69068200	-0.49199200	-0.53997200	1.78875900	-0.67032200	-0.20737400	0.16073700	0.82259500	-1.78074000	0.41967900	0.07469300	-0.55654500	-1.60051200	1.82151200	3.15867900
4116	41.15000000	0.78850800	-0.35826100	0.16102900	0.24057600	0.07631900	-0.33567900	-0.33964100	-0.44800900	-0.58399300	-0.80167400	-0.49471400	-0.47485000	1.67098400	-0.59107700	-0.61669900	0.04602100	0.66337300	-1.71115100	0.48453700	0.09929900	-0.62241500	-0.39776800	1.88281200	2.57715400
4117	41.16000000	0.78511700	-0.33026500	0.18724500	0.27225700	0.05333800	-0.43002000	-0.08935800	-0.38396100	-0.57651400	-0.68502500	-0.44371500	-0.41741400	1.29793400	-0.55304500	-0.85541100	-0.11481600	0.53855600	-1.67912300	0.52907800	0.10604200	-0.65039600	0.53212300	2.01277700	1.89876600
4118	41.17000000	0.78022000	-0.31699600	0.21002800	0.28735900	0.08190200	-0.50590600	0.14448600	-0.36386800	-0.61704600	-0.51703200	-0.39675200	-0.35192600	0.95916900	-0.60087900	-1.12447000	-0.36874600	0.46017700	-1.54971800	0.53854400	0.12691300	-0.65073100	1.04706500	2.14868100	1.25322700
4119	41.18000000	0.76492900	-0.30171500	0.20901100	0.25990500	0.12542600	-0.55274600	0.18487700	-0.35780400	-0.70438700	-0.42780000	-0.35128900	-0.28161300	0.78728300	-0.59002300	-1.47616000	-0.60144500	0.39033400	-1.51705400	0.47622200	0.12395700	-0.60467200	0.86333200	2.30016500	0.66756700
4120	41.19000000	0.75410300	-0.29070700	0.17764400	0.22288100	0.16221800	-0.57847500	0.08981700	-0.33941500	-0.80296300	-0.39999100	-0.30886800	-0.24544000	0.67286400	-0.50282500	-1.84599000	-0.84570500	0.34426100	-1.47450800	0.37741400	0.11287900	-0.56359900	0.45518800	2.50483000	0.08874600
4121	41.20000000	0.74161900	-0.27340400	0.15035100	0.18608900	0.19232900	-0.58721600	-0.01415200	-0.31916500	-0.84384400	-0.37737900	-0.27643200	-0.23405700	0.47381700	-0.44334100	-2.23526400	-1.10811000	0.32764200	-1.36904900	0.36499100	0.08495600	-0.53649100	0.22968100	2.77729900	-0.51673000
4122	41.21000000	0.73199900	-0.26325800	0.12922100	0.15980200	0.22329800	-0.57961900	-0.03299300	-0.26925600	-0.82692000	-0.33720900	-0.27370800	-0.23434800	0.10441400	-0.43514500	-2.67431900	-1.29212200	0.30337700	-1.32731200	0.37987300	0.07546400	-0.49273600	0.35987000	3.10899800	-1.11492400
4123	41.22000000	0.72968800	-0.25247200	0.08688200	0.13463800	0.24831000	-0.55945100	-0.01802000	-0.21057800	-0.85203800	-0.29514000	-0.28255900	-0.24965100	-0.32213400	-0.43815400	-3.06683300	-1.44030800	0.30696400	-1.26137500	0.27235500	0.09533600	-0.45134000	0.55533900	3.42013600	-1.60798900
4124	41.23000000	0.71917400	-0.25804800	0.07065400	0.13040700	0.26856100	-0.52854100	-0.16288100	-0.21313400	-0.87222800	-0.23574900	-0.27818000	-0.26372900	-0.60128600	-0.41243700	-3.36682900	-1.51838100	0.29090500	-1.23396600	0.19651700	0.09390100	-0.47273600	0.65060800	3.66832200	-1.92154500
4125	41.24000000	0.70266500	-0.26773400	0.03831600	0.13099300	0.26499600	-0.49510200	-0.18933900	-0.23623300	-0.86557900	-0.15453200	-0.28425600	-0.29261900	-0.77413800	-0.37837800	-3.61806900	-1.48082100	0.26689400	-1.19055700	0.28763600	0.13168600	-0.48051400	0.63801400	3.85870000	-2.07573400
4126	41.25000000	0.68380800	-0.29024800	0.00519600	0.13769000	0.24565000	-0.47163800	-0.09373300	-0.20787400	-0.85740700	-0.09590900	-0.27468200	-0.33191500	-0.82097100	-0.31352600	-3.89122600	-1.40502600	0.23961100	-1.09967900	0.27782200	0.09747500	-0.47034900	0.59531500	4.01193600	-2.10973700
4127	41.26000000	0.66111700	-0.29891200	-0.02115900	0.15499100	0.22105400	-0.44481300	-0.12263000	-0.20995400	-0.80936800	-0.08404400	-0.24348400	-0.36067200	-0.76709900	-0.26985100	-4.19580700	-1.28135300	0.20715700	-0.99110700	0.26262100	0.14652500	-0.44476600	0.62768100	4.19422100	-2.05144500
4128	41.27000000	0.64423800	-0.30396200	-0.04020300	0.15533600	0.19325100	-0.42632700	-0.19065900	-0.18787700	-0.81749200	-0.10702900	-0.19734000	-0.39581500	-0.68137800	-0.24872400	-4.48595000	-1.07172300	0.14789100	-0.87060600	0.15435700	0.13710600	-0.42691400	0.65790200	4.38078500	-1.93242500
4129	41.28000000	0.63476600	-0.29593900	-0.04784400	0.14475300	0.18585100	-0.40077900	-0.19568500	-0.12870000	-0.82241700	-0.14871700	-0.16217500	-0.42513000	-0.55762700	-0.19970600	-4.72028200	-0.79859200	0.09972500	-0.73858000	0.16834400	0.12596900	-0.44040100	0.61649600	4.52927300	-1.75692900
4130	41.29000000	0.61802600	-0.27938900	-0.03463100	0.11572400	0.20752700	-0.36963900	-0.13154700	-0.17451600	-0.76547200	-0.17529800	-0.13634300	-0.45302800	-0.39824500	-0.13127100	-4.93151800	-0.50209500	0.04666000	-0.58798900	0.27161100	0.10495300	-0.42821500	0.67206000	4.58267600	-1.55794300
4131	41.30000000	0.59526300	-0.25782300	-0.02906900	0.08055000	0.25367400	-0.34023500	-0.11106000	-0.15950900	-0.71655900	-0.18961200	-0.12992600	-0.48744300	-0.20369300	-0.06607000	-5.21156900	-0.18226200	0.00403700	-0.44274200	0.23916500	0.13133900	-0.39048700	0.84455600	4.58606900	-1.38682800
4132	41.31000000	0.57958400	-0.23532000	-0.01271800	0.04170300	0.29120400	-0.31602400	-0.13639400	-0.16936900	-0.70942100	-0.20534900	-0.13840000	-0.52526700	-0.17635500	0.01746600	-5.40048000	0.12037300	-0.04955700	-0.29350200	0.13402400	0.09542400	-0.33244500	1.09640600	4.56199400	-1.28133500
4133	41.32000000	0.55694400	-0.19234100	0.01596100	0.00150800	0.29733500	-0.29051500	-0.15911900	-0.18077500	-0.71294600	-0.22500500	-0.14919600	-0.55583200	-0.16133800	0.09102200	-5.46726200	0.37694200	-0.12241000	-0.13086300	0.13659800	0.10351600	-0.32631900	1.28647200	4.55016700	-1.25689100
4134	41.33000000	0.54593800	-0.14601400	0.04239100	-0.03208000	0.26751800	-0.27692100	-0.17020700	-0.15530600	-0.69319900	-0.22864700	-0.15844100	-0.57259700	0.03115700	0.17768500	-5.45172200	0.56637200	-0.20412100	0.06829200	0.12337300	0.10243600	-0.31019200	1.32493300	4.73958900	-1.31334400
4135	41.34000000	0.53227700	-0.09532100	0.07480000	-0.08448200	0.23160800	-0.26673400	-0.20986700	-0.17073300	-0.65714600	-0.22217200	-0.17030600	-0.60021600	0.30180400	0.28767800	-5.45572700	0.69695000	-0.28845300	0.28514900	0.17423800	0.08202300	-0.33130400	1.20008800	4.82484600	-1.42657200
